<svg xmlns="http://www.w3.org/2000/svg" viewBox="0 0 1329.04 1010.76"><defs><style>.cls-1{fill:#1f1f1f;}.cls-2{fill:#adadad;}.cls-3{fill:#8f8f8f;}.cls-4{fill:#e2e2e2;}.cls-5{fill:#d1d1d1;}.cls-6{fill:#bcbcbc;}.cls-7{fill:#434343;}.cls-8{fill:#f1f1f1;}.cls-9{fill:#e1e1e1;}.cls-10{fill:#e0e0e0;}.cls-11{fill:#949494;}.cls-12{fill:#f8f8f8;}.cls-13,.cls-14{font-size:430.13px;font-family:CenturyGothic-Bold, Century Gothic;font-weight:700;letter-spacing:0.01em;}.cls-13{fill:#727272;}.cls-15{font-size:72px;font-family:TwCenMT-Regular, Tw Cen MT;}.cls-16{letter-spacing:-0.02em;}.cls-17{letter-spacing:-0.03em;}.cls-18{letter-spacing:0.04em;}</style></defs><g id="Layer_2" data-name="Layer 2"><g id="Layer_1-2" data-name="Layer 1"><path class="cls-1" d="M522.81,989.86c-3-1-5.92-2-8.88-3.05C263.68,897.46,106.94,663,104.56,411.92,46.59,394.22,0,394.2,0,394.2c0,340.52,276,616.56,616.55,616.56,3.14,0,6.26-.08,9.39-.12C491,1007,382.42,916.6,342.39,793.33,368.59,880.66,431.48,954.46,522.81,989.86Z"/><path class="cls-2" d="M233.12,250.68c-48.65-36.16-92.52-51.83-92.52-51.83a615.4,615.4,0,0,0-36,213.07c30.15,9.21,63.36,23.21,94.73,44.48A615.61,615.61,0,0,1,233.12,250.68Z"/><path class="cls-3" d="M432.68,935.61c-2.45-1.94-4.91-3.86-7.34-5.85-147.78-121-224.87-296.24-226-473.36-31.37-21.27-64.58-35.27-94.73-44.48C106.94,663,263.68,897.46,513.93,986.81c3,1.06,5.92,2,8.88,3.05-91.33-35.4-154.22-109.2-180.42-196.53a336.36,336.36,0,0,1-10.79-42.5A298.69,298.69,0,0,0,432.68,935.61Z"/><path class="cls-4" d="M307.38,324.4a615.73,615.73,0,0,1,101-182.33c-33.66-50.42-69.71-79.93-69.71-79.93A615.27,615.27,0,0,0,233.12,250.68C258.41,269.49,285,293.83,307.38,324.4Z"/><path class="cls-5" d="M199.29,456.4a277.56,277.56,0,0,1,73.36,72.26A619.67,619.67,0,0,1,307.38,324.4c-22.39-30.57-49-54.91-74.26-73.72A615.61,615.61,0,0,0,199.29,456.4Z"/><path class="cls-6" d="M366,854.22c-1.65-2.66-3.32-5.3-4.94-8a613.74,613.74,0,0,1-88.44-317.58,277.56,277.56,0,0,0-73.36-72.26c1.18,177.12,78.27,352.41,226.05,473.36,2.43,2,4.89,3.91,7.34,5.85A298.69,298.69,0,0,1,331.6,750.83q-3-16.11-4.48-32.74A298.51,298.51,0,0,0,366,854.22Z"/><path class="cls-7" d="M610,98.71C595.25,39.91,571.22,0,571.22,0A615.22,615.22,0,0,0,408.4,142.07c17.5,26.21,34.35,58.07,45.15,94.39A615.77,615.77,0,0,1,610,98.71Z"/><path class="cls-8" d="M352.19,417.08A619.55,619.55,0,0,1,453.55,236.46c-10.8-36.32-27.65-68.18-45.15-94.39a615.73,615.73,0,0,0-101,182.33A277.62,277.62,0,0,1,352.19,417.08Z"/><path class="cls-9" d="M352.19,417.08a277.62,277.62,0,0,0-44.81-92.68,619.67,619.67,0,0,0-34.73,204.26c19.07,27.65,34.43,61,43.8,101.17A612.72,612.72,0,0,1,352.19,417.08Z"/><path class="cls-4" d="M366,854.22a298.51,298.51,0,0,1-38.91-136.13q-.69-7.76-1-15.6a304.71,304.71,0,0,0,4.54,52.66c-.67-3-1.36-6.1-2-9.18a619.45,619.45,0,0,1-12.21-116.14c-9.37-40.18-24.73-73.52-43.8-101.17a613.74,613.74,0,0,0,88.44,317.58C362.71,848.92,364.38,851.56,366,854.22Z"/><path class="cls-10" d="M475.35,438.39a340.58,340.58,0,0,0-69.42,60.81c42.85-47.18,100.6-82.42,167.48-98.91C873,326.46,811.11,19.67,811.11,19.67A615.35,615.35,0,0,0,610,98.71C633.46,192.32,633.4,333.81,475.35,438.39Z"/><path class="cls-11" d="M453.55,236.46c22.27,74.88,18.81,168.66-57.74,270.78a343.45,343.45,0,0,0-26.36,40.9,313.7,313.7,0,0,1,36.48-48.94,340.58,340.58,0,0,1,69.42-60.81C633.4,333.81,633.46,192.32,610,98.71A615.77,615.77,0,0,0,453.55,236.46Z"/><path class="cls-12" d="M344.05,598.82q-2.32,7.51-4.29,15a303.17,303.17,0,0,1,29.69-65.72,343.45,343.45,0,0,1,26.36-40.9c76.55-102.12,80-195.9,57.74-270.78A619.55,619.55,0,0,0,352.19,417.08C365.63,467.38,366.12,527.56,344.05,598.82Z"/><path class="cls-8" d="M316.45,629.83a393.2,393.2,0,0,1,9.65,72.65h0a296.4,296.4,0,0,1,13.66-88.63q2-7.53,4.29-15c22.07-71.26,21.58-131.44,8.14-181.74A612.72,612.72,0,0,0,316.45,629.83Z"/><path class="cls-4" d="M316.45,629.83A619.45,619.45,0,0,0,328.66,746c.62,3.08,1.31,6.13,2,9.18a304.71,304.71,0,0,1-4.54-52.66h0A393.2,393.2,0,0,0,316.45,629.83Z"/><text class="cls-13" transform="translate(435.25 779.59)">BRO</text><text class="cls-14" transform="translate(455.88 764.99)">BRO</text><text class="cls-15" transform="translate(454.3 875.23)">Brid<tspan class="cls-16" x="115.49" y="0">g</tspan><tspan x="153.77" y="0">e to </tspan><tspan class="cls-17" x="285.01" y="0">R</tspan><tspan x="318.87" y="0">ea</tspan><tspan class="cls-18" x="394.59" y="0">c</tspan><tspan x="425.18" y="0">h Or</tspan><tspan class="cls-16" x="556.07" y="0">g</tspan><tspan x="594.35" y="0">anization</tspan></text></g></g></svg>