<svg id="Layer_1" data-name="Layer 1" xmlns="http://www.w3.org/2000/svg" viewBox="0 0 1306.27 1010.76"><defs><style>.cls-1{fill:#263c88;}.cls-2{fill:#4ab269;}.cls-3{fill:#7587ba;}.cls-4{fill:#e4e873;}.cls-5{fill:#93cfa5;}.cls-6{fill:#a3afd1;}.cls-7{fill:#cc302f;}.cls-8{fill:#f2f3b9;}.cls-9{fill:#b7dec3;}.cls-10{fill:#d2d7e8;}.cls-11{fill:#f5d5d5;}.cls-12{fill:#e08282;}.cls-13{fill:#f7f8dc;}.cls-14{fill:#dceee1;}.cls-15{fill:#4372b8;}.cls-16{fill:#272361;}.cls-17{fill:#282560;}</style></defs><path class="cls-1" d="M818.29,1024.48c-3-1-5.92-2-8.88-3.05-250.25-89.34-407-323.81-409.36-574.89-58-17.7-104.57-17.71-104.57-17.71,0,340.51,276,616.55,616.55,616.55,3.14,0,6.26-.07,9.39-.12-134.92-3.63-243.52-94-283.55-217.31C664.07,915.28,727,989.08,818.29,1024.48Z" transform="translate(-295.48 -34.62)"/><path class="cls-2" d="M528.6,285.3c-48.65-36.16-92.52-51.83-92.52-51.83a615.15,615.15,0,0,0-36,213.07c30.14,9.21,63.35,23.22,94.72,44.48A615.61,615.61,0,0,1,528.6,285.3Z" transform="translate(-295.48 -34.62)"/><path class="cls-3" d="M728.16,970.23c-2.45-1.94-4.91-3.86-7.34-5.85C573,843.43,496,668.14,494.77,491c-31.37-21.26-64.58-35.27-94.72-44.48,2.37,251.08,159.11,485.55,409.36,574.89,3,1.06,5.92,2,8.88,3.05C727,989.08,664.07,915.28,637.87,828a335.93,335.93,0,0,1-10.79-42.5A298.69,298.69,0,0,0,728.16,970.23Z" transform="translate(-295.48 -34.62)"/><path class="cls-4" d="M602.86,359a615.73,615.73,0,0,1,101-182.33c-33.66-50.42-69.71-79.93-69.71-79.93A615.27,615.27,0,0,0,528.6,285.3C553.89,304.11,580.47,328.45,602.86,359Z" transform="translate(-295.48 -34.62)"/><path class="cls-5" d="M494.77,491a277.6,277.6,0,0,1,73.36,72.27A619.73,619.73,0,0,1,602.86,359c-22.39-30.57-49-54.91-74.26-73.72A615.61,615.61,0,0,0,494.77,491Z" transform="translate(-295.48 -34.62)"/><path class="cls-6" d="M661.51,888.84c-1.65-2.66-3.32-5.29-4.94-8a613.73,613.73,0,0,1-88.44-317.57A277.6,277.6,0,0,0,494.77,491C496,668.14,573,843.43,720.82,964.38c2.43,2,4.89,3.91,7.34,5.85A298.69,298.69,0,0,1,627.08,785.45q-3-16.11-4.48-32.74A298.47,298.47,0,0,0,661.51,888.84Z" transform="translate(-295.48 -34.62)"/><path class="cls-7" d="M905.48,133.33c-14.75-58.8-38.77-98.71-38.77-98.71A615.26,615.26,0,0,0,703.88,176.69c17.5,26.21,34.35,58.08,45.15,94.39A615.83,615.83,0,0,1,905.48,133.33Z" transform="translate(-295.48 -34.62)"/><path class="cls-8" d="M647.67,451.7A619.55,619.55,0,0,1,749,271.08c-10.8-36.31-27.65-68.18-45.15-94.39A615.73,615.73,0,0,0,602.86,359,277.72,277.72,0,0,1,647.67,451.7Z" transform="translate(-295.48 -34.62)"/><path class="cls-9" d="M647.67,451.7A277.72,277.72,0,0,0,602.86,359a619.73,619.73,0,0,0-34.73,204.27c19.07,27.64,34.43,61,43.8,101.16A612.76,612.76,0,0,1,647.67,451.7Z" transform="translate(-295.48 -34.62)"/><path class="cls-10" d="M661.51,888.84A298.47,298.47,0,0,1,622.6,752.71q-.69-7.76-1-15.6a304.63,304.63,0,0,0,4.54,52.66c-.67-3-1.36-6.1-2-9.18a619.45,619.45,0,0,1-12.21-116.14c-9.37-40.18-24.73-73.52-43.8-101.16a613.73,613.73,0,0,0,88.44,317.57C658.19,883.55,659.86,886.18,661.51,888.84Z" transform="translate(-295.48 -34.62)"/><path class="cls-11" d="M770.83,473a341.11,341.11,0,0,0-69.42,60.81c42.85-47.18,100.6-82.42,167.48-98.91,299.59-73.83,237.7-380.62,237.7-380.62a615.29,615.29,0,0,0-201.11,79C928.94,226.94,928.88,368.43,770.83,473Z" transform="translate(-295.48 -34.62)"/><path class="cls-12" d="M749,271.08C771.3,346,767.84,439.75,691.29,541.86a343.45,343.45,0,0,0-26.36,40.9,314.33,314.33,0,0,1,36.48-48.94A341.11,341.11,0,0,1,770.83,473c158-104.58,158.11-246.07,134.65-339.68A615.83,615.83,0,0,0,749,271.08Z" transform="translate(-295.48 -34.62)"/><path class="cls-13" d="M639.53,633.44q-2.32,7.51-4.29,15a303.17,303.17,0,0,1,29.69-65.72,343.45,343.45,0,0,1,26.36-40.9C767.84,439.75,771.3,346,749,271.08A619.55,619.55,0,0,0,647.67,451.7C661.11,502,661.6,562.18,639.53,633.44Z" transform="translate(-295.48 -34.62)"/><path class="cls-14" d="M611.93,664.45a393.32,393.32,0,0,1,9.65,72.65h0a296.72,296.72,0,0,1,13.66-88.63q2-7.53,4.29-15C661.6,562.18,661.11,502,647.67,451.7A612.76,612.76,0,0,0,611.93,664.45Z" transform="translate(-295.48 -34.62)"/><path class="cls-10" d="M611.93,664.45a619.45,619.45,0,0,0,12.21,116.14c.62,3.08,1.31,6.13,2,9.18a304.63,304.63,0,0,1-4.54-52.66h0A393.32,393.32,0,0,0,611.93,664.45Z" transform="translate(-295.48 -34.62)"/><path class="cls-15" d="M766,814.21v-309h48.57q42.27,0,61.83,5.46,27.75,7.37,44.16,27.31t16.4,47a68.57,68.57,0,0,1-7.46,32q-7.46,14.39-24.26,27,28.15,13.23,41.17,33.08t13,46.94A87.43,87.43,0,0,1,946,771.57q-13.46,21.42-34.69,32t-58.66,10.61Zm58.81-252.87v65.11h12.86q21.49,0,31.94-9t10.43-24.58q0-14.49-9.91-23T840,561.34Zm0,117.61v79.18h14.74q36.63,0,49.38-9.24T901.69,722q0-19.95-15-31.51T837,679Z" transform="translate(-295.48 -34.62)"/><path class="cls-15" d="M1023.82,505.26h62.3q51.2,0,72.9,9.14T1194,544.75q13.21,21.21,13.22,50.19,0,30.46-14.6,50.93t-44,31l73.19,137.36h-64.29L1088,683.36h-5.39V814.21h-58.8ZM1082.62,626h18.43q28,0,38.63-7.38t10.57-24.44a29.88,29.88,0,0,0-5.23-17.59,29,29,0,0,0-14-10.75q-8.79-3.27-32.24-3.27h-16.13Z" transform="translate(-295.48 -34.62)"/><path class="cls-15" d="M1419.5,497.49q65.57,0,112.75,47.47t47.18,115.72q0,67.64-46.55,114.46t-113,46.84q-69.57,0-115.59-48.1t-46-114.25q0-44.31,21.44-81.49a161.74,161.74,0,0,1,139.76-80.65Zm-.63,57.55q-42.9,0-72.12,29.82t-29.22,75.82q0,51.26,36.8,81.07a100.84,100.84,0,0,0,65.59,23.31q41.83,0,71.27-30.24t29.43-74.56q0-44.1-29.64-74.66T1418.87,555Z" transform="translate(-295.48 -34.62)"/><path class="cls-16" d="M786.64,799.61V490.67h48.58q42.25,0,61.82,5.46,27.75,7.35,44.16,27.3t16.4,47.05a68.69,68.69,0,0,1-7.45,32q-7.47,14.38-24.26,27,28.14,13.23,41.16,33.07t13,46.94A87.43,87.43,0,0,1,966.62,757q-13.47,21.42-34.69,32t-58.66,10.6Zm58.81-252.86v65.1h12.86q21.5,0,31.94-9t10.44-24.57q0-14.49-9.92-23t-30.14-8.5Zm0,117.61v79.18h14.74q36.64,0,49.39-9.24t12.74-26.89q0-19.95-15-31.5t-49.7-11.55Z" transform="translate(-295.48 -34.62)"/><path class="cls-16" d="M1044.44,490.67h62.31q51.18,0,72.9,9.14t34.92,30.34q13.23,21.23,13.22,50.2,0,30.45-14.59,50.93t-44,31l73.19,137.35H1178.1l-69.47-130.84h-5.38V799.61h-58.81Zm58.81,120.76h18.43q28,0,38.62-7.37t10.58-24.45a29.93,29.93,0,0,0-5.24-17.59,29,29,0,0,0-14-10.74q-8.79-3.27-32.24-3.27h-16.12Z" transform="translate(-295.48 -34.62)"/><path class="cls-16" d="M1440.12,482.9q65.57,0,112.75,47.46t47.19,115.73q0,67.62-46.56,114.46t-113,46.83q-69.55,0-115.59-48.09t-46-114.25q0-44.31,21.44-81.49a161.74,161.74,0,0,1,139.75-80.65Zm-.63,57.55q-42.88,0-72.11,29.82t-29.22,75.82q0,51.24,36.79,81.07a100.88,100.88,0,0,0,65.59,23.31q41.84,0,71.27-30.24t29.44-74.56q0-44.11-29.65-74.67T1439.49,540.45Z" transform="translate(-295.48 -34.62)"/><path class="cls-17" d="M755.33,865.06h7.1q7,0,11.43,3t4.43,7.68q0,5.65-6.54,9.45,10.13,3.38,10.13,11.71a10.84,10.84,0,0,1-5.23,9.36q-5.22,3.56-14,3.55h-7.35Zm6,5.42v13.25c3.37,0,6-.69,7.75-1.93a5.91,5.91,0,0,0,2.69-5.13,5.33,5.33,0,0,0-2.42-4.56,11.18,11.18,0,0,0-6.51-1.7A13.21,13.21,0,0,0,761.38,870.48Zm0,18.56v15.33h.49q7.92,0,10.79-2.53t2.89-5.17a6.32,6.32,0,0,0-3.24-5.55c-2.15-1.39-5.11-2.08-8.86-2.08Z" transform="translate(-295.48 -34.62)"/><path class="cls-17" d="M796.68,880.85v6a18.73,18.73,0,0,1,4-5.19,7.73,7.73,0,0,1,5.08-1.6,11.21,11.21,0,0,1,2.53.42l-1.87,6.12a15.63,15.63,0,0,0-2.32-.35,6.91,6.91,0,0,0-5.18,2.16,7.43,7.43,0,0,0-2.09,5.4v16.06H790.7v-29Z" transform="translate(-295.48 -34.62)"/><path class="cls-17" d="M812.71,871.32a4.47,4.47,0,0,1,1.4-3.28,4.58,4.58,0,0,1,3.34-1.39,4.66,4.66,0,0,1,3.29,8,4.54,4.54,0,0,1-3.29,1.37,4.64,4.64,0,0,1-3.34-1.37A4.49,4.49,0,0,1,812.71,871.32Zm1.72,9.53h6.05v29h-6.05Z" transform="translate(-295.48 -34.62)"/><path class="cls-17" d="M854,864.22h6v45.63h-6v-6q-4.34,6.86-11.34,6.85a12.6,12.6,0,0,1-9.72-4.53,15.82,15.82,0,0,1-4.05-10.9A15.32,15.32,0,0,1,833,884.52a12.93,12.93,0,0,1,9.83-4.48,11.55,11.55,0,0,1,6.37,1.9,14.37,14.37,0,0,1,4.72,5Zm.7,31.08a9.75,9.75,0,0,0-9.65-9.63,9.48,9.48,0,0,0-6.92,2.79,9.23,9.23,0,0,0-2.84,6.84,9.33,9.33,0,0,0,2.89,6.77,9.23,9.23,0,0,0,6.73,2.9,9.52,9.52,0,0,0,6.94-2.82A9.26,9.26,0,0,0,854.65,895.3Z" transform="translate(-295.48 -34.62)"/><path class="cls-17" d="M893.5,880.85h6v27.84a14.37,14.37,0,0,1-4.23,10.46A13.86,13.86,0,0,1,885,923.46a15.15,15.15,0,0,1-8.4-2.48,14.3,14.3,0,0,1-5.63-7.54h6.33a8.82,8.82,0,0,0,7.91,4.71,7.92,7.92,0,0,0,5.87-2.48,8.21,8.21,0,0,0,2.43-6v-5.48q-4.44,6.43-11.18,6.43a12.66,12.66,0,0,1-9.69-4.59,15.67,15.67,0,0,1-4.13-10.84,15.42,15.42,0,0,1,4-10.72,12.46,12.46,0,0,1,9.58-4.47q7.17,0,11.39,6.93Zm.84,14.45a9.1,9.1,0,0,0-2.83-6.82,9.67,9.67,0,0,0-7-2.74,9.39,9.39,0,0,0-6.75,2.84,8.92,8.92,0,0,0-2.92,6.58,9.58,9.58,0,0,0,2.88,7,9.33,9.33,0,0,0,6.86,2.92,9.47,9.47,0,0,0,6.91-2.85A9.36,9.36,0,0,0,894.34,895.3Z" transform="translate(-295.48 -34.62)"/><path class="cls-17" d="M936.6,896.53H911.85a9.73,9.73,0,0,0,3.67,6.52,10.49,10.49,0,0,0,6.24,2.06,10.8,10.8,0,0,0,8.72-4.33l4.47,3.38a16.18,16.18,0,0,1-13.47,6.5,14.57,14.57,0,0,1-10.83-4.43,15.08,15.08,0,0,1-4.36-11,14.74,14.74,0,0,1,4.42-10.67,15,15,0,0,1,21.49.07A16.08,16.08,0,0,1,936.6,896.53Zm-24.12-4.89H930.2q-3-6-8.72-6Q915.2,885.67,912.48,891.64Z" transform="translate(-295.48 -34.62)"/><path class="cls-17" d="M965.46,872.41h6.12v8.44h6v5.59h-6v23.41h-6.12V886.44h-4.81v-5.66h4.81Z" transform="translate(-295.48 -34.62)"/><path class="cls-17" d="M981.39,895.23a14.46,14.46,0,0,1,4.69-10.57A14.93,14.93,0,0,1,996.86,880a15.2,15.2,0,0,1,10.93,4.55,14.38,14.38,0,0,1,4.67,10.64,14.87,14.87,0,0,1-4.58,10.77,14.44,14.44,0,0,1-10.6,4.66,15.45,15.45,0,0,1-11.16-4.6A14.61,14.61,0,0,1,981.39,895.23Zm25.17,0a8.68,8.68,0,0,0-2.81-6.43,9.29,9.29,0,0,0-6.68-2.73,9.52,9.52,0,0,0-6.84,2.76,8.89,8.89,0,0,0-2.87,6.61,8.58,8.58,0,0,0,2.9,6.41,9.6,9.6,0,0,0,6.81,2.75,9.14,9.14,0,0,0,6.64-2.82A8.93,8.93,0,0,0,1006.56,895.25Z" transform="translate(-295.48 -34.62)"/><path class="cls-17" d="M1040.41,865.06h9.71q7.25,0,11.79,3.61a11.22,11.22,0,0,1,4.55,9.22,11.9,11.9,0,0,1-2.94,8q-2.94,3.43-9.19,4.85l13,19.16h-7l-12.43-18.42h-1.37v18.42h-6.12Zm6.12,5.42v15.61q13.53.28,13.54-7.84a6.81,6.81,0,0,0-1.59-4.66,7.9,7.9,0,0,0-4.21-2.46A34.81,34.81,0,0,0,1046.53,870.48Z" transform="translate(-295.48 -34.62)"/><path class="cls-17" d="M1101.69,896.53h-24.75a9.74,9.74,0,0,0,3.68,6.52,10.49,10.49,0,0,0,6.24,2.06,10.79,10.79,0,0,0,8.71-4.33l4.47,3.38a16.16,16.16,0,0,1-13.47,6.5,14.53,14.53,0,0,1-10.82-4.43,15,15,0,0,1-4.36-11,14.77,14.77,0,0,1,4.41-10.67,15,15,0,0,1,21.5.07A16.11,16.11,0,0,1,1101.69,896.53Zm-24.12-4.89h17.72q-3-6-8.72-6Q1080.29,885.67,1077.57,891.64Z" transform="translate(-295.48 -34.62)"/><path class="cls-17" d="M1133.16,880.85h6.11v29h-6.11v-5.76q-4.47,6.57-11.08,6.57a12.73,12.73,0,0,1-9.79-4.5,15.71,15.71,0,0,1-4.06-10.93,15.42,15.42,0,0,1,4.1-10.64,12.56,12.56,0,0,1,9.61-4.55,12.27,12.27,0,0,1,6.47,1.86,13.32,13.32,0,0,1,4.75,4.86Zm.84,14.59a9.22,9.22,0,0,0-2.85-6.8,9.61,9.61,0,0,0-13.6,0,9,9,0,0,0-2.89,6.61,9.62,9.62,0,0,0,2.82,7,9.18,9.18,0,0,0,6.83,2.89,9.77,9.77,0,0,0,9.69-9.67Z" transform="translate(-295.48 -34.62)"/><path class="cls-17" d="M1170.21,901v7a18.28,18.28,0,0,1-9.07,2.67,15.45,15.45,0,0,1-15.05-15,15.09,15.09,0,0,1,4.5-11.2,15.4,15.4,0,0,1,11.29-4.45,18.79,18.79,0,0,1,8.33,2.11V889a16.29,16.29,0,0,0-8.72-3,9.4,9.4,0,0,0-6.64,2.67A8.32,8.32,0,0,0,1152,895a9.41,9.41,0,0,0,2.67,6.8,8.75,8.75,0,0,0,6.54,2.76Q1165.15,904.51,1170.21,901Z" transform="translate(-295.48 -34.62)"/><path class="cls-17" d="M1177.7,864.22h6.12V885.6a20.58,20.58,0,0,1,4.72-4.24,10.28,10.28,0,0,1,5.37-1.32,8.51,8.51,0,0,1,6.38,2.83,9.5,9.5,0,0,1,2.69,6.77v20.21h-6.12V891.36a6.57,6.57,0,0,0-1.39-4.39,4.58,4.58,0,0,0-3.67-1.66,7.48,7.48,0,0,0-5.65,2.5,8.55,8.55,0,0,0-2.33,6.05v16h-6.12Z" transform="translate(-295.48 -34.62)"/><path class="cls-17" d="M1229.17,887.2a22.08,22.08,0,0,1,7.31-16.62,24.64,24.64,0,0,1,17.58-6.92,24,24,0,0,1,17.26,7,22.22,22.22,0,0,1,7.24,16.57,23.12,23.12,0,0,1-7.15,17.16,25.31,25.31,0,0,1-35-.06A23,23,0,0,1,1229.17,887.2Zm42.89.28a16.53,16.53,0,0,0-5.35-12.49,18.36,18.36,0,0,0-13.14-5.07,17.54,17.54,0,0,0-12.71,5.16,16.69,16.69,0,0,0-5.29,12.4,16.33,16.33,0,0,0,5.43,12.41,18.72,18.72,0,0,0,13.3,5.08,17.2,17.2,0,0,0,12.5-5.18A16.69,16.69,0,0,0,1272.06,887.48Z" transform="translate(-295.48 -34.62)"/><path class="cls-17" d="M1292.77,880.85v6a18.54,18.54,0,0,1,4-5.19,7.73,7.73,0,0,1,5.08-1.6,11.21,11.21,0,0,1,2.53.42l-1.87,6.12a15.63,15.63,0,0,0-2.32-.35,6.91,6.91,0,0,0-5.18,2.16,7.43,7.43,0,0,0-2.09,5.4v16.06h-6.12v-29Z" transform="translate(-295.48 -34.62)"/><path class="cls-17" d="M1334.07,880.85h6v27.84a14.34,14.34,0,0,1-4.24,10.46,13.84,13.84,0,0,1-10.24,4.31,15.21,15.21,0,0,1-8.41-2.48,14.29,14.29,0,0,1-5.62-7.54h6.33a8.82,8.82,0,0,0,7.91,4.71,7.94,7.94,0,0,0,5.87-2.48,8.2,8.2,0,0,0,2.42-6v-5.48q-4.42,6.43-11.18,6.43a12.64,12.64,0,0,1-9.68-4.59,15.67,15.67,0,0,1-4.13-10.84,15.46,15.46,0,0,1,4-10.72,12.49,12.49,0,0,1,9.58-4.47q7.17,0,11.39,6.93Zm.85,14.45a9.14,9.14,0,0,0-2.83-6.82,9.69,9.69,0,0,0-7-2.74,9.42,9.42,0,0,0-6.75,2.84,8.94,8.94,0,0,0-2.91,6.58,9.58,9.58,0,0,0,2.88,7,9.33,9.33,0,0,0,6.85,2.92,9.76,9.76,0,0,0,9.78-9.74Z" transform="translate(-295.48 -34.62)"/><path class="cls-17" d="M1372.64,880.85h6.12v29h-6.12v-5.76q-4.47,6.57-11.07,6.57a12.71,12.71,0,0,1-9.79-4.5,15.72,15.72,0,0,1-4.07-10.93,15.42,15.42,0,0,1,4.1-10.64,12.58,12.58,0,0,1,9.62-4.55,12.21,12.21,0,0,1,6.46,1.86,13.24,13.24,0,0,1,4.75,4.86Zm.84,14.59a9.22,9.22,0,0,0-2.85-6.8,9.6,9.6,0,0,0-13.59,0,8.91,8.91,0,0,0-2.89,6.61,9.62,9.62,0,0,0,2.82,7,9.15,9.15,0,0,0,6.83,2.89,9.77,9.77,0,0,0,9.68-9.67Z" transform="translate(-295.48 -34.62)"/><path class="cls-17" d="M1386.81,909.85v-29h6v4.82a24.26,24.26,0,0,1,4.78-4.28,8.78,8.78,0,0,1,4.78-1.35,9.55,9.55,0,0,1,6.73,2.6,8.27,8.27,0,0,1,2.8,6.26v21h-6.12V890.69a5.31,5.31,0,0,0-1.53-3.9,5.25,5.25,0,0,0-3.89-1.55,6.75,6.75,0,0,0-5.27,2.59,9.23,9.23,0,0,0-2.21,6.24v15.78Z" transform="translate(-295.48 -34.62)"/><path class="cls-17" d="M1418.34,871.32a4.44,4.44,0,0,1,1.41-3.28,4.58,4.58,0,0,1,3.34-1.39,4.66,4.66,0,0,1,3.29,8,4.54,4.54,0,0,1-3.29,1.37,4.64,4.64,0,0,1-3.34-1.37A4.46,4.46,0,0,1,1418.34,871.32Zm1.73,9.53h6v29h-6Z" transform="translate(-295.48 -34.62)"/><path class="cls-17" d="M1433,880.85h27.42l-17.48,23.66h17.34v5.34h-27.63l17.68-23.69H1433Z" transform="translate(-295.48 -34.62)"/><path class="cls-17" d="M1491.22,880.85h6.12v29h-6.12v-5.76c-3,4.38-6.67,6.57-11.07,6.57a12.71,12.71,0,0,1-9.79-4.5,15.71,15.71,0,0,1-4.06-10.93,15.41,15.41,0,0,1,4.09-10.64A12.58,12.58,0,0,1,1480,880a12.27,12.27,0,0,1,6.47,1.86,13.21,13.21,0,0,1,4.74,4.86Zm.85,14.59a9.2,9.2,0,0,0-2.86-6.8,9.6,9.6,0,0,0-13.59,0,8.91,8.91,0,0,0-2.89,6.61,9.62,9.62,0,0,0,2.82,7,9.17,9.17,0,0,0,6.83,2.89,9.78,9.78,0,0,0,9.69-9.67Z" transform="translate(-295.48 -34.62)"/><path class="cls-17" d="M1508.48,872.41h6.12v8.44h6.05v5.59h-6.05v23.41h-6.12V886.44h-4.81v-5.66h4.81Z" transform="translate(-295.48 -34.62)"/><path class="cls-17" d="M1524.9,871.32a4.44,4.44,0,0,1,1.41-3.28,4.58,4.58,0,0,1,3.34-1.39,4.67,4.67,0,0,1,3.29,8,4.56,4.56,0,0,1-3.29,1.37,4.64,4.64,0,0,1-3.34-1.37A4.46,4.46,0,0,1,1524.9,871.32Zm1.72,9.53h6.05v29h-6.05Z" transform="translate(-295.48 -34.62)"/><path class="cls-17" d="M1540.2,895.23a14.46,14.46,0,0,1,4.69-10.57,14.93,14.93,0,0,1,10.77-4.62,15.2,15.2,0,0,1,10.94,4.55,14.42,14.42,0,0,1,4.67,10.64,14.9,14.9,0,0,1-4.58,10.77,14.45,14.45,0,0,1-10.6,4.66,15.49,15.49,0,0,1-11.17-4.6A14.63,14.63,0,0,1,1540.2,895.23Zm25.17,0a8.66,8.66,0,0,0-2.82-6.43,9.25,9.25,0,0,0-6.67-2.73,9.52,9.52,0,0,0-6.84,2.76,8.89,8.89,0,0,0-2.87,6.61,8.58,8.58,0,0,0,2.9,6.41,9.6,9.6,0,0,0,6.81,2.75,9.14,9.14,0,0,0,6.64-2.82A8.93,8.93,0,0,0,1565.37,895.25Z" transform="translate(-295.48 -34.62)"/><path class="cls-17" d="M1576.69,909.85v-29h6v4.82a24.56,24.56,0,0,1,4.79-4.28,8.78,8.78,0,0,1,4.78-1.35,9.55,9.55,0,0,1,6.73,2.6,8.26,8.26,0,0,1,2.79,6.26v21h-6.11V890.69a5.31,5.31,0,0,0-1.53-3.9,5.25,5.25,0,0,0-3.89-1.55,6.75,6.75,0,0,0-5.27,2.59,9.24,9.24,0,0,0-2.22,6.24v15.78Z" transform="translate(-295.48 -34.62)"/></svg>