<svg xmlns="http://www.w3.org/2000/svg" viewBox="0 0 576.11 438.14"><defs><style>.cls-1{fill:#273c86;}.cls-2{fill:#49b168;}.cls-3{fill:#7486b9;}.cls-4{fill:#e3e773;}.cls-5{fill:#92cea4;}.cls-6{fill:#a1add0;}.cls-7{fill:#cb2f2f;}.cls-8{fill:#f1f2b8;}.cls-9{fill:#b6ddc1;}.cls-10{fill:#d1d6e7;}.cls-11{fill:#f4d4d4;}.cls-12{fill:#df8081;}.cls-13{fill:#f6f7db;}.cls-14{fill:#daeddf;}.cls-15,.cls-16{font-size:186.45px;font-family:CenturyGothic-Bold, Century Gothic;font-weight:700;letter-spacing:0.01em;}.cls-15{fill:#4372b7;}.cls-16{fill:#272361;}.cls-17{font-size:31.21px;fill:#282560;font-family:TwCenMT-Regular, Tw Cen MT;}.cls-18{letter-spacing:-0.02em;}.cls-19{letter-spacing:-0.03em;}.cls-20{letter-spacing:0.04em;}</style></defs><g id="Layer_2" data-name="Layer 2"><g id="Layer_1-2" data-name="Layer 1"><path class="cls-1" d="M226.63,429.08c-1.29-.44-2.57-.86-3.85-1.32C114.3,389,46.35,287.4,45.33,178.56,20.2,170.89,0,170.88,0,170.88c0,147.6,119.66,267.26,267.26,267.26,1.36,0,2.72,0,4.07-.05-58.48-1.57-105.56-40.76-122.91-94.2C159.78,381.75,187,413.74,226.63,429.08Z"/><path class="cls-2" d="M101.05,108.67C80,93,60.94,86.2,60.94,86.2a266.69,266.69,0,0,0-15.61,92.36,152.66,152.66,0,0,1,41.06,19.28A267,267,0,0,1,101.05,108.67Z"/><path class="cls-3" d="M187.56,405.57c-1.07-.85-2.13-1.68-3.19-2.54a266.69,266.69,0,0,1-98-205.19,152.66,152.66,0,0,0-41.06-19.28c1,108.84,69,210.47,177.45,249.2,1.28.46,2.56.88,3.85,1.32-39.59-15.34-66.85-47.33-78.21-85.19a146.07,146.07,0,0,1-4.68-18.42A129.51,129.51,0,0,0,187.56,405.57Z"/><path class="cls-4" d="M133.24,140.62a267,267,0,0,1,43.79-79c-14.59-21.85-30.21-34.64-30.21-34.64a266.46,266.46,0,0,0-45.77,81.73A152.43,152.43,0,0,1,133.24,140.62Z"/><path class="cls-5" d="M86.39,197.84a120.54,120.54,0,0,1,31.8,31.32,268.45,268.45,0,0,1,15.05-88.54,152.43,152.43,0,0,0-32.19-31.95A267,267,0,0,0,86.39,197.84Z"/><path class="cls-6" d="M158.67,370.28c-.72-1.15-1.44-2.29-2.15-3.46a266,266,0,0,1-38.33-137.66,120.54,120.54,0,0,0-31.8-31.32,266.69,266.69,0,0,0,98,205.19c1.06.86,2.12,1.69,3.19,2.54a129.51,129.51,0,0,1-43.82-80.1c-.86-4.66-1.52-9.39-1.94-14.2A129.28,129.28,0,0,0,158.67,370.28Z"/><path class="cls-7" d="M264.42,42.79C258,17.3,247.61,0,247.61,0A266.86,266.86,0,0,0,177,61.58,152.59,152.59,0,0,1,196.6,102.5,267,267,0,0,1,264.42,42.79Z"/><path class="cls-8" d="M152.67,180.8a268.43,268.43,0,0,1,43.93-78.3A152.59,152.59,0,0,0,177,61.58a267,267,0,0,0-43.79,79A120.33,120.33,0,0,1,152.67,180.8Z"/><path class="cls-9" d="M152.67,180.8a120.33,120.33,0,0,0-19.43-40.18,268.45,268.45,0,0,0-15.05,88.54,127.25,127.25,0,0,1,19,43.86A265.64,265.64,0,0,1,152.67,180.8Z"/><path class="cls-10" d="M158.67,370.28a129.28,129.28,0,0,1-16.87-59q-.3-3.36-.44-6.76a132.85,132.85,0,0,0,2,22.83c-.28-1.32-.58-2.64-.85-4a268.9,268.9,0,0,1-5.3-50.34,127.25,127.25,0,0,0-19-43.86,266,266,0,0,0,38.33,137.66C157.23,368,158,369.13,158.67,370.28Z"/><path class="cls-11" d="M206.05,190A147.89,147.89,0,0,0,176,216.39a144.48,144.48,0,0,1,72.6-42.87c129.87-32,103-165,103-165a266.62,266.62,0,0,0-87.18,34.26C274.59,83.37,274.56,144.7,206.05,190Z"/><path class="cls-12" d="M196.6,102.5c9.66,32.46,8.16,73.11-25,117.38a148.22,148.22,0,0,0-11.42,17.73A135.07,135.07,0,0,1,176,216.39,147.89,147.89,0,0,1,206.05,190c68.51-45.33,68.54-106.66,58.37-147.24A267,267,0,0,0,196.6,102.5Z"/><path class="cls-13" d="M149.14,259.58c-.67,2.16-1.29,4.34-1.86,6.51a131.17,131.17,0,0,1,12.87-28.48,148.22,148.22,0,0,1,11.42-17.73c33.19-44.27,34.69-84.92,25-117.38a268.43,268.43,0,0,0-43.93,78.3C158.49,202.6,158.71,228.69,149.14,259.58Z"/><path class="cls-14" d="M137.17,273a169.79,169.79,0,0,1,4.19,31.49h0a128.78,128.78,0,0,1,5.92-38.42c.57-2.17,1.19-4.35,1.86-6.51,9.57-30.89,9.35-57,3.53-78.78A265.64,265.64,0,0,0,137.17,273Z"/><path class="cls-10" d="M137.17,273a268.9,268.9,0,0,0,5.3,50.34c.27,1.34.57,2.66.85,4a132.85,132.85,0,0,1-2-22.83h0A169.79,169.79,0,0,0,137.17,273Z"/><text class="cls-15" transform="translate(188.67 337.93)">BRO</text><text class="cls-16" transform="translate(197.61 331.61)">BRO</text><text class="cls-17" transform="translate(196.93 379.39)">Brid<tspan class="cls-18" x="50.06" y="0">g</tspan><tspan x="66.66" y="0">e to </tspan><tspan class="cls-19" x="123.55" y="0">R</tspan><tspan x="138.22" y="0">ea</tspan><tspan class="cls-20" x="171.05" y="0">c</tspan><tspan x="184.31" y="0">h Or</tspan><tspan class="cls-18" x="241.04" y="0">g</tspan><tspan x="257.64" y="0">anization</tspan></text></g></g></svg>